<svg xmlns="http://www.w3.org/2000/svg" xmlns:xlink="http://www.w3.org/1999/xlink" width="22" height="21" viewBox="0 0 59.216 56.416"><defs><path id="a" d="M0 0h59.216v56.416H0z"/></defs><clipPath id="b"><use xlink:href="#a" overflow="visible"/></clipPath><path clip-path="url(#b)" fill="none" stroke="#a8acb9" stroke-miterlimit="10" d="M14.14 2.371C10.307-.903 5.038.974 3.92 1.652 2.802 2.331-.192 5.046.646 8.759c.839 3.712 2.03 5.379 4.033 6.666 1.676 1.078 4.87 1.118 6.946.959 2.076-.16 5.309-2.715 5.509-7.186.199-4.472-2.994-6.827-2.994-6.827zM15.976 25.103c-1.198-.449-7.396-.599-9.521-.629-2.126-.03-4.541-.084-4.851.419-.239.39-.12 9.013-.239 14.672-.12 5.659-.48 14.282-.3 14.611.18.329 16.855 1.056 17.094.547.24-.509 1.26-20.907 1.111-24.021-.15-3.114-2.096-5.15-3.294-5.599zM58.501 35.283c-.269-3.743-2.335-6.617-5.24-8.473-2.903-1.857-7.813-2.366-11.138-1.677-3.323.689-6.827 3.743-6.946 3.713-.12-.03-.029-2.575-.12-3.204-.09-.629-1.228-.539-4.071-.569-2.845-.03-6.686.017-6.737.24-.15.658.12 13.772.15 18.503s-.21 9.911 0 10.51c.209.6 12.875 1.287 12.875-.24 0-1.526-.03-13.054.479-16.677s3.383-4.97 5.718-4.372c2.336.6 2.726 3.204 3.204 6.378.479 3.175-.234 14.069-.265 15.058s12.002 1.95 12.182 1.141c.179-.809.179-16.588-.091-20.331z"/></svg>