<svg id="Layer_1" xmlns="http://www.w3.org/2000/svg" viewBox="0 0 22 22"><style>.st0{fill:#9ca3b0}</style><path class="st0" d="M4 7c-.7 0-1.6 0-2.2-.4C.9 6 .4 5.2.1 3.8-.3 2.1 1 .8 1.5.5c.7-.4 2.9-1 4.4.3.3.2 1.5 1.2 1.4 3-.1 2-1.6 3.1-2.6 3.2H4zm-.4-5.6c-.6 0-1.2.2-1.3.3-.2.1-1 .8-.8 1.8.2 1.1.5 1.5 1.1 1.9.3.2 1.1.3 2 .2.3 0 1.2-.6 1.3-1.9.1-1.2-.8-1.8-.8-1.8-.5-.4-1-.5-1.5-.5zM6 20.6c-.8 0-2 0-2.9-.1C.5 20.4.5 20.3.2 20c-.1-.2-.1-.2 0-3.3 0-.8 0-1.6.1-2.3v-2.6c0-2.7 0-2.7.2-3 .3-.5 1-.5 2.2-.5h.1c1.1 0 3.1.1 3.6.3C7.2 9 8 10 8 11.3c0 .1-.2 8.3-.5 8.8-.2.4-.6.4-1.1.5H6zM1.6 19c1.1.1 3.6.2 4.7.2.1-1.7.4-6.9.3-7.8 0-.8-.6-1.3-.7-1.3-.2-.1-1.6-.2-3.1-.2H1.7v4.6c0 .7 0 1.5-.1 2.3V19zM20.4 21c-.5 0-1.2 0-2.2-.2-1-.1-2-.3-2-1.1v-.4c.1-1 .2-3.9.1-4.8-.2-1.1-.3-1.6-.6-1.7-.2-.1-.5 0-.7.1-.2.2-.4.5-.5.8-.1.8-.2 2.8-.2 5.7v.1c0 .3-.2.8-1.1.9-.8.1-2.2.1-2.6.1-1.6.1-2-.1-2.1-.5-.1-.2-.1-.5-.1-1.9v-2-2.4c-.1-3.7 0-4.2 0-4.3.1-.6.5-.7 3.1-.6h.4c.9 0 1.6 0 1.8.7.5-.3 1.1-.6 1.7-.7 1.3-.3 3.2-.1 4.5.7 1.3.8 2.1 2.1 2.2 3.5.1 1.2.1 6.9 0 7.4-.2.3-.3.6-1.7.6zm-2.7-1.7c.7.1 2.1.3 2.9.3 0-1.4 0-5.5-.1-6.5-.1-1.3-.9-2-1.5-2.4-.9-.6-2.5-.7-3.4-.5-.8.2-1.7.8-2 1.1-.2.2-.4.3-.8.2-.6-.1-.6-.6-.6-1.2v-.1H9.7v9c.8.1 2.4.1 3.2 0 0-2.1 0-4.6.2-5.6.1-.8.5-1.4 1.1-1.8.5-.4 1.2-.5 1.8-.3 1.3.3 1.5 1.6 1.7 2.8.2.9.1 3.2 0 5z"/></svg>