<svg id="Layer_1" xmlns="http://www.w3.org/2000/svg" viewBox="0 0 20 14.2"><style>.st0{fill:#a8acb9}</style><path class="st0" d="M13.6 3.1c-.5-.2-1-.2-1.4 0-.4.2-.7.4-.9.8 0 .1-.1.1-.1.2-.4.9-.1 1.9.8 2.4h.1c.5.2 1 .2 1.4 0 .5-.2.8-.5 1-1 .5-.9 0-2-.9-2.4zm-.4 2.7c-.3.1-.6.1-.8 0-.5-.2-.8-.9-.5-1.4v-.1c.1-.2.3-.3.5-.4h.1c.3-.1.6-.1.8 0h.1c.5.3.7.9.5 1.4-.2.2-.4.4-.7.5z"/><path class="st0" d="M11.8 6.9c-1.1-.5-1.5-1.8-1-2.9 0-.1.1-.1.1-.2.3-.5.7-.8 1.2-1 .6-.2 1.2-.2 1.7 0 1.1.5 1.7 1.9 1.2 3-.2.6-.7 1-1.3 1.2-.6.2-1.2.2-1.7 0-.1-.1-.1-.1-.2-.1zm1.3-2.6c-.2-.1-.4-.1-.5 0h-.1c-.1.1-.2.1-.3.3v.1c-.1.2-.1.3 0 .5s.2.3.3.3c.2.1.3.1.5 0s.3-.2.3-.3c.3-.4.1-.8-.2-.9z"/><g><path class="st0" d="M19.5 2.9c-.1-.2-.3-.3-.5-.2l-2 1.1c-.2-1.1-.8-2-1.6-2.5-.2-.1-.4-.2-.5-.3-1.1-.6-2.2-.6-3.1-.4-.2 0-.4.1-.6.2C10 1.2 9.1 2 8.6 2.4l-.1.1L2.3.6H2c-.1 0-.1.1-.2.2v.1C.9 4.2 2.3 7 3.3 8.4c.2.3.4.5.5.7L.6 10.5c-.1 0-.2.1-.2.2v.1c0 .1 0 .3.1.4 0 0 .8.6 2 1.2 1.5.8 3.7 1.6 5.9 1.4h.1c.9-.1 1.7-.3 2.6-.7 3.7-1.7 5.6-5.2 5.8-7.7v-.3l2.1.8c.2.1.4 0 .5-.2.1-.2 0-.4-.2-.5l-1.7-.8 1.8-1c.2-.1.2-.3.1-.5zm-5.6 7.3c-.8.8-1.8 1.5-2.9 2.1-1.1.5-2.2.7-3.2.7-1.8 0-3.5-.6-4.8-1.3-.4-.2-.7-.4-1-.6-.2-.1-.3-.1-.4-.2l3-1.3h.1l.2-.2c0-.1 0-.2-.1-.3 0 0-3.2-3.3-2.3-7.5l6.1 1.8c.1 0 .3 0 .4-.1.1-.1 1.3-1.5 3-1.8.8-.2 1.6-.1 2.5.3.1.1.3.1.4.2.8.5 1.3 1.4 1.4 2.5v.8c-.1.9-.4 1.8-.9 2.8-.4.7-.9 1.5-1.5 2.1z"/><path class="st0" d="M2.4 12.8c-1.2-.6-2-1.2-2.1-1.3-.2-.2-.3-.5-.3-.8 0-.1 0-.1.1-.2.1-.2.2-.4.4-.5l2.6-1.1c0-.1-.1-.1-.1-.2C2 7.2.4 4.3 1.4.8c0-.1 0-.1.1-.2.1-.2.2-.3.3-.4.2 0 .4-.1.6 0l6 1.8C8.9 1.6 9.9.8 11 .4c.2-.1.4-.1.6-.2 1.2-.3 2.3-.1 3.4.4.2.1.3.2.5.3.8.5 1.4 1.3 1.7 2.2l1.5-.8c.2-.1.4-.1.6-.1.2.1.4.2.5.4.2.3.2.5.2.7-.1.2-.2.4-.4.5l-1 .5.9.4c.2.1.4.3.4.5.1.2.1.4 0 .6-.2.4-.7.6-1.1.4l-1.3-.6c-.3 2.6-2.3 6.1-6.1 7.7-.9.4-1.8.6-2.8.7h-.1c-2.4.4-4.7-.5-6.1-1.2zm.2-1.8c.2.1.4.2.5.3 1.6.8 3.2 1.2 4.6 1.3 1.1 0 2.1-.2 3-.6 1.1-.5 2-1.1 2.8-2 .6-.6 1.1-1.3 1.5-2 .5-.9.8-1.8.8-2.7V4.5c-.1-.9-.5-1.7-1.2-2.1-.8-.5-1.7-.7-2.6-.5-1.6.3-2.7 1.6-2.8 1.7-.1.2-.5.3-.8.2L2.8 2.1c-.5 3.6 2.3 6.5 2.3 6.6l.1.1c.1.2.2.4.2.7 0 .2-.2.4-.3.5h-.3l-2.2 1z"/></g></svg>