<svg xmlns="http://www.w3.org/2000/svg" xmlns:xlink="http://www.w3.org/1999/xlink" width="20" height="16" viewBox="0 0 61.878 55.735"><defs><path id="a" d="M0 0h61.878v55.735H0z"/></defs><clipPath id="b"><use xlink:href="#a" overflow="visible"/></clipPath><path clip-path="url(#b)" fill="#a8acb9" d="M39.381 10.49a6.393 6.393 0 0 0-4.425 2.165 6.38 6.38 0 0 0-1.597 4.66c.212 3.384 3.031 6.034 6.418 6.034.135 0 .271-.005.406-.014a6.394 6.394 0 0 0 4.425-2.164 6.396 6.396 0 0 0 1.598-4.659c-.221-3.517-3.264-6.243-6.825-6.022m3.165 8.862a3.665 3.665 0 0 1-2.534 1.239 3.69 3.69 0 0 1-3.223-5.831 3.658 3.658 0 0 1 2.997-1.533 3.69 3.69 0 0 1 3.674 3.457 3.664 3.664 0 0 1-.914 2.668"/><path clip-path="url(#b)" fill="#a8acb9" d="M57.396.236a1.375 1.375 0 0 0-1.908.368l-4.352 6.43c-2.379-2.926-5.502-4.71-9.011-5.052a18.252 18.252 0 0 0-1.796-.089c-4.306 0-7.634 1.581-10.167 3.728l-.075.067c-.518.445-1.003.914-1.456 1.398-2.942 3.137-4.535 6.89-5.221 8.843-.057.164-.111.321-.156.459L1.129 20.424A1.37 1.37 0 0 0 0 21.795c0 .092.013.184.033.275 2.484 11.348 11.162 17.595 16.562 20.465 1 .532 1.888.947 2.603 1.258l-7.51 9.051a1.373 1.373 0 0 0-.237 1.336c.16.456.549.795 1.025.89.135.026 3.363.666 8.042.666h.003c6.007 0 13.666-1.032 20.337-5.142.015-.009.026-.017.041-.023l.289-.188a28.12 28.12 0 0 0 6.935-6.206c8.755-10.95 9.103-24.56 5.721-32.571a18.935 18.935 0 0 0-.424-.932l7.168-.447a1.376 1.376 0 1 0-.171-2.745l-6.54.408 3.887-5.745a1.375 1.375 0 0 0-.368-1.909m-5.672 31.307a32.489 32.489 0 0 1-5.75 10.917c-2.499 3.124-5.485 5.358-8.645 6.943-5.638 2.829-11.831 3.582-16.812 3.582a48.164 48.164 0 0 1-5.144-.277l7.153-8.621a1.398 1.398 0 0 0 .263-1.256 1.366 1.366 0 0 0-.765-.868c-.041-.019-.079-.044-.123-.059-.154-.052-14.936-5.149-18.837-19.04l21.509-3.924c.53-.096.955-.497 1.088-1.019.093-.372 1.698-6.51 6.333-10.31 2.104-1.727 4.837-2.969 8.335-2.969.499 0 1.013.025 1.528.075 3.289.321 6.099 2.208 8.113 5.385l.005.015c.008.014.021.024.029.036.482.767.919 1.608 1.304 2.519 1.153 2.732 1.824 6.187 1.787 9.971a31.898 31.898 0 0 1-1.371 8.9"/></svg>