<svg xmlns="http://www.w3.org/2000/svg" xmlns:xlink="http://www.w3.org/1999/xlink" width="13" height="21" viewBox="0 0 30.352 30.883"><defs><path id="a" d="M0 .002h30.351v30.883H0z"/></defs><clipPath id="b"><use xlink:href="#a" overflow="visible"/></clipPath><path clip-path="url(#b)" fill="#a8acb9" d="M11.396 21.255a1.37 1.37 0 0 0 1.375 0l8.187-4.726c.424-.245.688-.7.688-1.19 0-.491-.264-.946-.688-1.192l-8.187-4.725a1.377 1.377 0 0 0-2.063 1.191v9.45c0 .492.263.947.688 1.192m2.062-8.26l4.061 2.345-4.061 2.342v-4.687z"/><path clip-path="url(#b)" fill="#a8acb9" d="M30.352 24.76l-.029-23.382c0-.76-.616-1.376-1.376-1.376H1.375C.615.002 0 .618 0 1.378l.007 4.753L0 6.127l.028 23.382c0 .76.616 1.376 1.376 1.376h27.572c.76 0 1.375-.616 1.375-1.376l-.007-4.753.008.004m-2.749 3.374H2.779L2.75 2.753h24.823l.03 25.381z"/></svg>